<svg xmlns="http://www.w3.org/2000/svg" viewBox="0 0 512 512" role="img" aria-label="ResiBook">
  <defs>
    <linearGradient id="teal" x1="112" y1="104" x2="392" y2="410" gradientUnits="userSpaceOnUse">
      <stop stop-color="#14b8a6"/>
      <stop offset="1" stop-color="#0891b2"/>
    </linearGradient>
    <linearGradient id="navy" x1="148" y1="82" x2="362" y2="430" gradientUnits="userSpaceOnUse">
      <stop stop-color="#164e97"/>
      <stop offset="1" stop-color="#0b2f78"/>
    </linearGradient>
    <filter id="shadow" x="-20%" y="-20%" width="140%" height="140%">
      <feDropShadow dx="0" dy="10" stdDeviation="14" flood-color="#0f172a" flood-opacity=".12"/>
    </filter>
  </defs>

  <rect x="28" y="28" width="456" height="456" rx="104" fill="#fff" filter="url(#shadow)"/>
  <rect x="28.5" y="28.5" width="455" height="455" rx="103.5" fill="none" stroke="#dbe4ee"/>

  <path d="M88 194v180c58 0 117 14 168 53V230c-42-30-98-40-168-36Z" fill="#fff" stroke="url(#teal)" stroke-width="18" stroke-linejoin="round"/>
  <path d="M424 194v180c-58 0-117 14-168 53V230c42-30 98-40 168-36Z" fill="#fff" stroke="url(#teal)" stroke-width="18" stroke-linejoin="round"/>
  <path d="M73 218v177c70 0 132 17 183 55 51-38 113-55 183-55V218" fill="none" stroke="url(#navy)" stroke-width="18" stroke-linecap="round" stroke-linejoin="round"/>

  <rect x="228" y="285" width="56" height="112" rx="13" fill="url(#teal)"/>
  <rect x="200" y="313" width="112" height="56" rx="13" fill="url(#teal)"/>

  <circle cx="256" cy="104" r="19" fill="url(#navy)"/>
  <path d="M256 124v140" stroke="url(#navy)" stroke-width="14" stroke-linecap="round"/>
  <path d="M229 145c56-27 76 14 47 36l-38 26c-25 18-12 47 18 48" fill="none" stroke="url(#teal)" stroke-width="14" stroke-linecap="round"/>
  <path d="M283 168c-51 19-58 51-20 69 24 12 31 29 11 47" fill="none" stroke="url(#navy)" stroke-width="12" stroke-linecap="round"/>
</svg>
